<?xml version="1.0" encoding="UTF-8"?><svg id="Layer_1" xmlns="http://www.w3.org/2000/svg" viewBox="0 0 175.94 161.02"><defs><style>.cls-1{fill:#fff;stroke-width:2px;}.cls-1,.cls-2{stroke:blue;stroke-miterlimit:10;}.cls-3{fill:blue;}.cls-2{fill:none;stroke-width:3px;}</style></defs><path class="cls-3" d="M118.47,12.24l42.79,59.72-30.33,66.92-73.12,7.19L15.02,86.35,45.35,19.44l73.12-7.19m.95-2.1l-75.41,7.42L12.72,86.58l44.13,61.6,75.41-7.42,31.28-69.02L119.42,10.14h0Z"/><path class="cls-3" d="M123.99,1.05l50.81,70.92-36.02,79.46-86.82,8.54L1.15,89.05,37.16,9.59,123.99,1.05m.48-1.05L36.49,8.65,0,89.17l51.48,71.86,87.97-8.65,36.49-80.51L124.46,0h0Z"/><polyline class="cls-1" points="129.61 141.21 76.85 69.18 131.53 141.15"/><line class="cls-2" x1="76.85" y1="69.18" x2="76.85" y2="96.18"/><line class="cls-2" x1="103.85" y1="69.18" x2="76.85" y2="69.18"/></svg>